<?xml version="1.0" encoding="UTF-8" standalone="no"?>
<svg
   xmlns:dc="http://purl.org/dc/elements/1.1/"
   xmlns:cc="http://creativecommons.org/ns#"
   xmlns:rdf="http://www.w3.org/1999/02/22-rdf-syntax-ns#"
   xmlns:svg="http://www.w3.org/2000/svg"
   xmlns="http://www.w3.org/2000/svg"
   xmlns:sodipodi="http://sodipodi.sourceforge.net/DTD/sodipodi-0.dtd"
   xmlns:inkscape="http://www.inkscape.org/namespaces/inkscape"
   inkscape:version="1.0 (4035a4f, 2020-05-01)"
   sodipodi:docname="logo2.svg"
   id="svg838"
   version="1.1"
   viewBox="0 0 95 47">
  <metadata
     id="metadata844">
    <rdf:RDF>
      <cc:Work
         rdf:about="">
        <dc:format>image/svg+xml</dc:format>
        <dc:type
           rdf:resource="http://purl.org/dc/dcmitype/StillImage" />
        <dc:title></dc:title>
      </cc:Work>
    </rdf:RDF>
  </metadata>
  <defs
     id="defs842" />
  <sodipodi:namedview
     inkscape:current-layer="svg838"
     inkscape:window-maximized="1"
     inkscape:window-y="23"
     inkscape:window-x="45"
     inkscape:cy="12.185184"
     inkscape:cx="75.010706"
     inkscape:zoom="4.9176977"
     showgrid="false"
     id="namedview840"
     inkscape:window-height="755"
     inkscape:window-width="1235"
     inkscape:pageshadow="2"
     inkscape:pageopacity="0"
     guidetolerance="10"
     gridtolerance="10"
     objecttolerance="10"
     borderopacity="1"
     bordercolor="#666666"
     pagecolor="#ffffff" />
  <g
     id="g836"
     transform="translate(0,-250)">
    <g
       id="g834"
       style="fill:#ffffff"
       transform="matrix(0.26458333,0,0,0.26458333,-5.7672067,249.27231)">
      <path
         style="fill:#ffffff;fill-rule:evenodd;stroke:none"
         d="M 24.607,6.544 V 8.202 H 201.926 379.245 L 379.195,6.588 379.145,4.974 201.876,4.93 24.607,4.886 v 1.658 m 18.237,25.437 c -0.043,0.12 3.083,13.569 6.947,29.886 l 7.024,29.669 8.732,0.045 8.732,0.045 5.379,-23.867 c 2.958,-13.127 5.985,-26.537 6.725,-29.801 0.741,-3.263 1.315,-5.992 1.276,-6.064 -0.131,-0.244 -17.613,-0.158 -17.801,0.087 -0.092,0.12 -1.141,4.522 -2.331,9.782 -1.189,5.261 -2.182,9.502 -2.205,9.424 C 65.3,51.11 64.287,46.806 63.073,41.623 61.858,36.44 60.786,32.101 60.69,31.981 c -0.135,-0.17 -2.143,-0.218 -8.972,-0.218 -6.88,0 -8.814,0.047 -8.874,0.218 m 83.967,-0.08 c -0.047,0.076 -3.311,13.407 -7.254,29.623 -3.943,16.217 -7.213,29.624 -7.267,29.792 -0.092,0.29 0.404,0.307 9.065,0.307 8.574,0 9.168,-0.02 9.255,-0.305 0.112,-0.366 2.2,-9.603 2.2,-9.729 0,-0.049 2.927,-0.088 6.506,-0.088 h 6.506 l 1.026,4.494 c 0.565,2.471 1.096,4.749 1.181,5.061 l 0.155,0.567 h 8.98 c 7.463,0 8.979,-0.04 8.979,-0.238 0,-0.326 -13.591,-59.273 -13.711,-59.467 -0.12,-0.193 -25.501,-0.21 -25.621,-0.017 m 67.162,0.078 c -0.046,0.121 -0.063,13.571 -0.039,29.888 l 0.045,29.669 9.032,0.045 9.032,0.045 -0.044,-29.888 -0.044,-29.888 -8.949,-0.045 c -7.067,-0.036 -8.967,0.001 -9.033,0.174 m 50.124,-0.102 c -0.065,0.065 -0.118,13.535 -0.118,29.932 v 29.814 h 9.074 9.074 l 0.045,-14.7 0.044,-14.7 3.042,5.232 c 1.672,2.878 3.136,5.375 3.253,5.55 0.186,0.278 0.636,-0.393 3.632,-5.41 l 3.419,-5.728 0.003,14.878 0.002,14.878 h 8.988 8.989 L 293.5,61.736 293.455,31.85 284.802,31.805 c -8.077,-0.043 -8.672,-0.025 -8.915,0.261 -0.144,0.169 -1.818,2.963 -3.72,6.208 l -3.458,5.901 -1.521,-2.585 c -0.837,-1.421 -2.461,-4.195 -3.608,-6.162 l -2.086,-3.578 -8.64,-0.045 c -4.751,-0.025 -8.692,0.008 -8.757,0.072 m 81.675,0.001 c -0.065,0.065 -0.118,13.534 -0.118,29.931 v 29.814 h 16.929 16.928 V 84.031 76.44 h -7.853 -7.853 v -3.578 -3.578 h 5.499 5.499 l -0.045,-7.548 -0.046,-7.548 -5.454,-0.046 -5.453,-0.046 v -3.575 -3.575 h 7.855 7.855 l -0.045,-7.548 -0.046,-7.548 -16.768,-0.045 c -9.222,-0.024 -16.82,0.009 -16.884,0.073 M 140.913,60.035 c 0.83,3.695 1.551,6.856 1.601,7.024 0.086,0.284 -0.144,0.306 -3.168,0.306 -3.019,0 -3.255,-0.023 -3.183,-0.306 0.043,-0.168 0.776,-3.344 1.629,-7.059 0.853,-3.714 1.565,-6.738 1.582,-6.719 0.017,0.019 0.709,3.058 1.539,6.754 m 131.442,52.183 c -6.645,1.177 -17.729,18.185 -19.923,30.571 -1.407,7.941 2.016,13.033 9.086,13.515 6.765,0.462 14.744,-6.844 14.82,-13.571 0.032,-2.917 -0.978,-2.806 -3.574,0.392 -3.318,4.085 -7.2,6.096 -8.523,4.415 -0.972,-1.236 -0.873,-5.951 0.22,-10.542 2.434,-10.212 8.224,-23.154 7.711,-17.234 -0.471,5.425 -2.533,12.374 -5.342,18.002 -1.94,3.884 -1.859,3.645 -1.385,4.119 1.185,1.185 4.894,-0.931 7.896,-4.503 8.858,-10.543 8.222,-26.794 -0.986,-25.164 m -139.982,0.536 c -2.073,0.272 -3.36,0.96 -5.169,2.766 -3.754,3.746 -3.789,6.736 -0.087,7.432 1.372,0.257 6.555,0.036 8.694,-0.373 0.469,-0.089 0.467,-0.083 -0.814,2.876 -4.501,10.396 -8.135,21.757 -8.42,26.324 -0.331,5.309 4.555,6.19 10.412,1.879 2.073,-1.526 2.682,-3.28 6.543,-18.841 0.619,-2.496 1.443,-5.663 1.83,-7.038 1.124,-3.995 1.183,-4.393 0.78,-5.209 l -0.341,-0.688 1.838,-0.363 c 3.477,-0.687 4.439,-1.438 5.012,-3.918 0.408,-1.768 -0.133,-2.954 -1.641,-3.599 -1.548,-0.662 -15.82,-1.618 -18.637,-1.248 m 71.01,12.331 c -3.218,1.378 -4.293,9.504 -2.595,19.63 2.283,13.624 5.78,15.291 13.423,6.398 4.527,-5.267 8.997,-11.76 10.387,-15.084 1.794,-4.292 0.613,-10.549 -1.992,-10.549 -1.402,0 -1.898,0.798 -5.813,9.352 -1.138,2.487 -2.77,6.027 -3.628,7.867 l -1.559,3.344 -0.113,-7.533 c -0.142,-9.514 -0.331,-10.767 -1.834,-12.191 -1.372,-1.299 -4.627,-1.939 -6.276,-1.234 m 37.716,0.289 c -6.278,1.536 -11.428,6.065 -14.663,12.895 -7.788,16.44 4.531,23.983 19.566,11.98 3.506,-2.799 4.155,-3.82 3.03,-4.766 -1.377,-1.16 -2.201,-1.018 -5.165,0.889 -4.721,3.037 -7.252,3.514 -8.295,1.564 -0.231,-0.43 -0.135,-0.489 0.5,-0.307 2.272,0.651 7.656,-2.852 10.69,-6.956 6.208,-8.397 2.879,-17.389 -5.663,-15.299 m -87.199,0.191 c -2.542,0.935 -4.332,4.332 -6.255,11.87 -3.711,14.553 -2.106,21.502 4.241,18.356 3.877,-1.922 4.374,-3.244 5.091,-13.557 0.276,-3.978 0.575,-6.325 0.989,-7.766 l 0.201,-0.698 0.335,0.754 c 0.249,0.56 0.38,1.459 0.508,3.49 0.259,4.108 0.659,5.206 1.701,4.667 1.526,-0.788 3.035,-4.537 3.535,-8.781 0.845,-7.164 -1.493,-10.631 -4.851,-7.194 l -1.173,1.201 -0.213,-0.619 c -0.569,-1.656 -2.31,-2.385 -4.109,-1.723 m 31.091,-0.071 c -14.386,1.592 -27.74,23.156 -18.528,29.921 4.874,3.579 10.004,1.591 17.688,-6.855 l 1.311,-1.44 0.106,2.051 c 0.409,7.869 5.403,9.877 11.455,4.604 l 0.775,-0.675 -0.387,-1.334 c -0.699,-2.405 -0.987,-9.055 -0.566,-13.065 0.261,-2.493 -0.046,-3.153 -1.566,-3.362 l -0.855,-0.117 0.329,-0.644 c 2.7,-5.294 -2.264,-9.913 -9.762,-9.084 m 56.154,4.567 c 1.176,1.46 -0.505,9.049 -2.829,12.779 -0.941,1.51 -2.856,3.39 -3.085,3.029 -1.464,-2.309 4.325,-17.781 5.914,-15.808 m -57.494,0.271 c 1.356,1.499 1.092,4.719 -0.647,7.888 -1.236,2.251 -0.315,2.768 3.24,1.822 0.511,-0.136 0.977,-0.248 1.035,-0.249 0.508,-0.01 -6.116,5.857 -7.792,6.901 -4.56,2.842 -5.785,-3.515 -1.952,-10.132 2.438,-4.209 5.303,-7.128 6.116,-6.23 M 24.607,177.923 v 1.658 H 201.92 379.232 v -1.658 -1.658 H 201.92 24.607 v 1.658"
         id="path64" />
    </g>
  </g>
  <circle
     r="50"
     cy="23.627623"
     cx="47.97123"
     id="path846"
     style="fill:#de261d" />
</svg>
